<?xml version="1.0" encoding="utf-8"?>
<svg xmlns="http://www.w3.org/2000/svg" viewBox="0 0 64 64" width="512" height="512">
  <linearGradient id="_TAdJ5a8j~kNO8UzCqOHJa" x1="32" x2="32" y1="39.417" y2="51.427" gradientUnits="userSpaceOnUse" spreadMethod="reflect">
    <stop offset="0" stop-color="#6dc7ff" />
    <stop offset="1" stop-color="#e6abff" />
  </linearGradient>
  <path fill="url(#_TAdJ5a8j~kNO8UzCqOHJa)" d="M45,51H19l11.645-10.749c0.765-0.706,1.945-0.706,2.71,0L45,51z" />
  <linearGradient id="_TAdJ5a8j~kNO8UzCqOHJb" x1="32" x2="32" y1="7" y2="57.843" gradientUnits="userSpaceOnUse" spreadMethod="reflect">
    <stop offset="0" stop-color="#1a6dff" />
    <stop offset="1" stop-color="#c822ff" />
  </linearGradient>
  <path fill="url(#_TAdJ5a8j~kNO8UzCqOHJb)" d="M58,29.242c0-1.053-0.427-2.084-1.172-2.828L54,23.586V14c0-1.302-0.839-2.401-2-2.816V9 c0-1.103-0.897-2-2-2H14c-1.103,0-2,0.897-2,2v2.184c-1.161,0.415-2,1.514-2,2.816v9.586l-2.828,2.828 C6.427,27.158,6,28.189,6,29.242V30h0.004C6.003,30.018,6,30.035,6,30.053V52c0,2.757,2.243,5,5,5h42c2.757,0,5-2.243,5-5V30.053 c0-0.018-0.003-0.035-0.004-0.053H58V29.242z M56,52c0,0.483-0.125,0.933-0.329,1.337l-14.532-13.95l13.249-10.13 c0.31-0.239,0.705-0.277,1.054-0.103C55.791,29.326,56,29.663,56,30.053V52z M50,9v2H14V9H50z M13,13h38c0.552,0,1,0.448,1,1v14.565 l-12.32,9.421l-4.219-4.05c-1.941-1.863-4.982-1.863-6.922,0l-4.219,4.05L12,28.564V14C12,13.448,12.448,13,13,13z M8.329,53.338 C8.126,52.933,8,52.483,8,52V30.053c0-0.39,0.209-0.727,0.559-0.898c0.349-0.175,0.744-0.135,1.054,0.102l13.249,10.132 L8.329,53.338z M11,55c-0.44,0-0.855-0.101-1.231-0.271L29.924,35.38c1.164-1.119,2.988-1.119,4.152,0l20.156,19.349 C53.855,54.899,53.44,55,53,55H11z" />
  <linearGradient id="_TAdJ5a8j~kNO8UzCqOHJc" x1="32" x2="32" y1="7" y2="57.843" gradientUnits="userSpaceOnUse" spreadMethod="reflect">
    <stop offset="0" stop-color="#1a6dff" />
    <stop offset="1" stop-color="#c822ff" />
  </linearGradient>
  <path fill="url(#_TAdJ5a8j~kNO8UzCqOHJc)" d="M20 18H44V20H20z" />
  <linearGradient id="_TAdJ5a8j~kNO8UzCqOHJd" x1="32" x2="32" y1="7" y2="57.843" gradientUnits="userSpaceOnUse" spreadMethod="reflect">
    <stop offset="0" stop-color="#1a6dff" />
    <stop offset="1" stop-color="#c822ff" />
  </linearGradient>
  <path fill="url(#_TAdJ5a8j~kNO8UzCqOHJd)" d="M20 22H44V24H20z" />
  <linearGradient id="_TAdJ5a8j~kNO8UzCqOHJe" x1="25.5" x2="25.5" y1="7" y2="57.843" gradientUnits="userSpaceOnUse" spreadMethod="reflect">
    <stop offset="0" stop-color="#1a6dff" />
    <stop offset="1" stop-color="#c822ff" />
  </linearGradient>
  <path fill="url(#_TAdJ5a8j~kNO8UzCqOHJe)" d="M20 26H31V28H20z" />
  <linearGradient id="_TAdJ5a8j~kNO8UzCqOHJf" x1="38.5" x2="38.5" y1="7" y2="57.843" gradientUnits="userSpaceOnUse" spreadMethod="reflect">
    <stop offset="0" stop-color="#1a6dff" />
    <stop offset="1" stop-color="#c822ff" />
  </linearGradient>
  <path fill="url(#_TAdJ5a8j~kNO8UzCqOHJf)" d="M33 26H44V28H33z" />
</svg>