<?xml version="1.0" encoding="utf-8"?>
<svg xmlns="http://www.w3.org/2000/svg" x="0" y="0" viewBox="0 0 64 64" width="512" height="512">
  <linearGradient id="SVGID_1_" x1="32" x2="32" y1="10.766" y2="25.546" gradientUnits="userSpaceOnUse">
    <stop offset="0" stop-color="#6dc7ff" />
    <stop offset="1" stop-color="#e6abff" />
  </linearGradient>
  <path fill="url(#SVGID_1_)" d="M38.9,15.6C38.9,15.6,38.9,15.6,38.9,15.6c-0.1-0.2-0.1-0.3-0.2-0.3c0,0,0,0,0,0c0,0-0.1-0.1-0.1-0.1l-6-3.8 c-0.3-0.2-0.7-0.2-1.1,0l-6,3.8c-0.1,0-0.1,0.1-0.1,0.1c0,0,0,0,0,0c0,0,0,0,0,0c0,0,0,0,0,0c0,0,0,0,0,0c-0.1,0.1-0.1,0.2-0.2,0.3 c0,0,0,0,0,0.1c0,0.1-0.1,0.2-0.1,0.3V23c0,0,0,0.1,0,0.1c0,0,0,0,0,0c0,0.1,0,0.1,0,0.2c0,0,0,0,0,0c0,0,0,0,0,0 c0,0.1,0,0.1,0.1,0.2c0,0,0,0,0,0c0,0,0,0,0,0c0,0.1,0.1,0.1,0.1,0.2c0,0,0,0,0,0c0,0,0,0,0,0c0,0.1,0.1,0.1,0.1,0.1c0,0,0,0,0,0 c0,0,0,0.1,0.1,0.1l6,3.8c0.2,0.1,0.4,0.2,0.5,0.2s0.4-0.1,0.5-0.2l6-3.8c0,0,0-0.1,0.1-0.1c0,0,0,0,0,0c0.1,0,0.1-0.1,0.1-0.1 c0,0,0,0,0,0v0c0,0,0.1-0.1,0.1-0.2c0,0,0,0,0,0c0,0,0,0,0,0c0-0.1,0.1-0.1,0.1-0.2c0,0,0,0,0,0c0,0,0,0,0,0c0-0.1,0-0.1,0-0.2 c0,0,0,0,0,0c0,0,0-0.1,0-0.1V16C39,15.8,39,15.7,38.9,15.6z" />
  <linearGradient id="SVGID_2_" x1="22.762" x2="22.762" y1="19.72" y2="56.851" gradientUnits="userSpaceOnUse">
    <stop offset="0" stop-color="#1a6dff" />
    <stop offset="1" stop-color="#c822ff" />
  </linearGradient>
  <path fill="url(#SVGID_2_)" d="M20.4,53.8c1.4,1.2,3,2.1,4.7,2.9C23.6,55.6,22,54.6,20.4,53.8z" />
  <linearGradient id="SVGID_3_" x1="39" x2="39" y1="447.417" y2="440.522" gradientTransform="matrix(1 0 0 -1 0 485)" gradientUnits="userSpaceOnUse">
    <stop offset="0" stop-color="#6dc7ff" />
    <stop offset="1" stop-color="#e6abff" />
  </linearGradient>
  <path fill="url(#SVGID_3_)" d="M39,38c-1.7,0-3,1.3-3,3s1.3,3,3,3s3-1.3,3-3S40.7,38,39,38z" />
  <linearGradient id="SVGID_4_" x1="25" x2="25" y1="447.417" y2="440.522" gradientTransform="matrix(1 0 0 -1 0 485)" gradientUnits="userSpaceOnUse">
    <stop offset="0" stop-color="#6dc7ff" />
    <stop offset="1" stop-color="#e6abff" />
  </linearGradient>
  <path fill="url(#SVGID_4_)" d="M25,38c-1.7,0-3,1.3-3,3s1.3,3,3,3s3-1.3,3-3S26.7,38,25,38z" />
  <linearGradient id="SVGID_5_" x1="32" x2="32" y1="439.833" y2="433.666" gradientTransform="matrix(1 0 0 -1 0 485)" gradientUnits="userSpaceOnUse">
    <stop offset="0" stop-color="#6dc7ff" />
    <stop offset="1" stop-color="#e6abff" />
  </linearGradient>
  <path fill="url(#SVGID_5_)" d="M28,47c0,2.2,1.8,4,4,4s4-1.8,4-4v-1h-8V47z" />
  <linearGradient id="SVGID_6_" x1="32" x2="32" y1="3.425" y2="61.145" gradientUnits="userSpaceOnUse">
    <stop offset="0" stop-color="#1a6dff" />
    <stop offset="1" stop-color="#c822ff" />
  </linearGradient>
  <path fill="url(#SVGID_6_)" d="M50,32.1v-0.8V30c0-5.1-2.2-10-6-13.4V13c0-0.1,0-0.2-0.1-0.3c0,0,0,0,0-0.1c0-0.1-0.1-0.2-0.2-0.3c0,0,0,0,0,0c0,0-0.1-0.1-0.1-0.1l-11-7c-0.3-0.2-0.7-0.2-1.1,0l-11,7c-0.1,0-0.1,0.1-0.1,0.1c0,0,0,0,0,0c-0.1,0.1-0.1,0.2-0.2,0.3c0,0,0,0,0,0.1c0,0.1-0.1,0.2-0.1,0.3v3.6c-3.8,3.4-6,8.3-6,13.4v1.4v0.7c-3.4,0.5-6,3.4-6,6.9c0,3.9,3.2,7,7,7l0-0.1c2.4,7,9.1,12.1,17,12.1c7.9,0,14.6-5.1,17-12.1V46c3.9,0,7-3.1,7-7C56,35.5,53.4,32.6,50,32.1z M33,7.8l8.1,5.2L33,18.2V7.8z M42,14.8v9.4l-7.4-4.7L42,14.8z M33,20.8l8.1,5.2L33,31.2V20.8z M31,7.8v10.4L22.9,13L31,7.8z M22,14.8l7.4,4.7L22,24.2V14.8z M31,20.8v10.4L22.9,26L31,20.8z M14.4,43.9C12,43.7,10,41.6,10,39c0-2.4,1.7-4.4,4-4.9v2.1c-1.2,0.4-2,1.5-2,2.8c0,1.3,0.9,2.5,2.1,2.8c0,0.5,0.1,0.9,0.2,1.4C14.4,43.5,14.4,43.7,14.4,43.9C14.4,43.9,14.4,43.9,14.4,43.9z M32,56c-8.8,0-16-7.2-16-16V30c0-3.9,1.4-7.7,4-10.6V26c0,0.1,0,0.2,0.1,0.3c0,0,0,0,0,0.1c0,0.1,0.1,0.2,0.2,0.3c0,0,0,0,0,0c0,0,0.1,0.1,0.1,0.1l11,7c0.2,0.1,0.4,0.2,0.5,0.2s0.4-0.1,0.5-0.2l11-7c0.1,0,0.1-0.1,0.1-0.1c0,0,0,0,0,0c0.1-0.1,0.1-0.2,0.2-0.3c0,0,0,0,0-0.1c0-0.1,0.1-0.2,0.1-0.3v-6.6c2.6,2.9,4,6.6,4,10.6v10C48,48.8,40.8,56,32,56z M49.6,43.9C49.6,43.9,49.6,43.9,49.6,43.9c0.1-0.2,0.1-0.5,0.1-0.7c0.1-0.5,0.2-0.9,0.2-1.4c1.2-0.4,2.1-1.5,2.1-2.8c0-1.3-0.8-2.4-2-2.8v-2.1c2.3,0.5,4,2.5,4,4.9C54,41.6,52,43.7,49.6,43.9z" />
</svg>