<?xml version="1.0" encoding="utf-8"?>
<svg xmlns="http://www.w3.org/2000/svg" viewBox="0 0 64 64" width="512" height="512">
  <linearGradient id="DfuumViViFlNRIkQmDL9Na" x1="41" x2="41" y1="47.875" y2="54.011" gradientUnits="userSpaceOnUse" spreadMethod="reflect">
    <stop offset="0" stop-color="#6dc7ff" />
    <stop offset="1" stop-color="#e6abff" />
  </linearGradient>
  <path fill="url(#DfuumViViFlNRIkQmDL9Na)" d="M41 48A3 3 0 1 0 41 54A3 3 0 1 0 41 48Z" />
  <linearGradient id="DfuumViViFlNRIkQmDL9Nb" x1="16" x2="16" y1="4.667" y2="58.975" gradientUnits="userSpaceOnUse" spreadMethod="reflect">
    <stop offset="0" stop-color="#1a6dff" />
    <stop offset="1" stop-color="#c822ff" />
  </linearGradient>
  <path fill="url(#DfuumViViFlNRIkQmDL9Nb)" d="M20,32h-1V13.722c0.595-0.347,1-0.985,1-1.722V8c0-1.103-0.897-2-2-2h-4c-1.103,0-2,0.897-2,2 v4c0,0.737,0.405,1.375,1,1.722V32h-1c-1.654,0-3,1.346-3,3v16c0,3.859,3.141,7,7,7s7-3.141,7-7V35C23,33.346,21.654,32,20,32z M14,8h4v4h-4V8z M15,14h2v18h-2V14z M12,34h1h6h1c0.552,0,1,0.448,1,1v3H11v-3C11,34.448,11.448,34,12,34z M19,50V40h2v10H19z M11,50V40h2v10H11z M15,40h2v10h-2V40z M16,56c-2.415,0-4.434-1.721-4.899-4h9.798C20.434,54.279,18.415,56,16,56z" />
  <linearGradient id="DfuumViViFlNRIkQmDL9Nc" x1="41.003" x2="41.003" y1="4.667" y2="58.975" gradientUnits="userSpaceOnUse" spreadMethod="reflect">
    <stop offset="0" stop-color="#1a6dff" />
    <stop offset="1" stop-color="#c822ff" />
  </linearGradient>
  <path fill="url(#DfuumViViFlNRIkQmDL9Nc)" d="M55,17c0-6.374-4.206-11-10-11h-1v9c0,0.552-0.448,1-1,1h-4c-0.552,0-1-0.448-1-1V6h-1 c-3.082,0-5.79,1.292-7.625,3.637c-2.209,2.823-2.929,6.931-1.924,10.988c0.989,3.999,4.398,6.888,8.483,7.319l-1.533,23.003 c-0.121,1.819,0.524,3.626,1.77,4.958C37.417,57.236,39.177,58,41,58c1.825,0,3.587-0.764,4.833-2.095 c1.262-1.35,1.89-3.108,1.767-4.952l-1.533-23.007C51.304,27.416,55,22.977,55,17z M45.001,26h-1.069l1.672,25.086 c0.086,1.286-0.352,2.512-1.231,3.452C43.49,55.48,42.293,56,41,56c-1.29,0-2.486-0.519-3.368-1.461 c-0.882-0.943-1.32-2.171-1.234-3.459L38.067,26h-1.068c-3.625,0-6.753-2.408-7.606-5.855c-0.858-3.466-0.275-6.933,1.558-9.274 c1.268-1.62,2.999-2.582,5.05-2.814V15c0,1.654,1.346,3,3,3h4c1.654,0,3-1.346,3-3V8.058c4.17,0.486,7,4.027,7,8.942 C53,22.299,49.711,26,45.001,26z" />
  <linearGradient id="DfuumViViFlNRIkQmDL9Nd" x1="41" x2="41" y1="4.667" y2="58.975" gradientUnits="userSpaceOnUse" spreadMethod="reflect">
    <stop offset="0" stop-color="#1a6dff" />
    <stop offset="1" stop-color="#c822ff" />
  </linearGradient>
  <path fill="url(#DfuumViViFlNRIkQmDL9Nd)" d="M40 31H42V45H40z" />
</svg>